<svg width="169" height="33" viewBox="0 0 169 33" fill="none" xmlns="http://www.w3.org/2000/svg">
<path d="M0.5 21.1864L34.6721 0V7.63598L0.5 23.6348V21.1864Z" fill="white"/>
<path d="M4.94336 25.5093L6.66261 23.6348L21.5653 26.2974L19.8461 30.4062L4.94336 25.5093Z" fill="white"/>
<path d="M21.4883 19.0908L23.4205 17.6523L34.6718 29.7567L29.1565 33.0008L21.4883 19.0908Z" fill="white"/>
<path d="M123.189 25.3398V9.48633H129.61C129.61 9.48633 135.194 9.48633 135.194 14.1995C135.194 19.2953 129.61 19.1423 129.61 19.1423H127.077V25.3398H123.197H123.189ZM127.069 16.3266H129.876C129.876 16.3266 131.443 16.3266 131.443 14.3449C131.443 12.654 129.884 12.654 129.884 12.654H127.077V16.3266H127.069ZM131.542 25.3398L127.761 18.2241H131.862L136.19 25.3398H131.542Z" fill="white"/>
<path d="M139.828 25.3396V9.48617H143.708V15.7832L149.117 9.47852H153.985L147.291 16.686L154.328 25.3243H149.352L143.715 18.4305V25.3243H139.836L139.828 25.3396Z" fill="white"/>
<path d="M56.5654 8.4082V15.1643C55.6602 14.3303 54.4962 13.8253 53.2258 13.8253C50.3274 13.8253 47.9844 16.4421 47.9844 19.6785C47.9844 22.915 50.3274 25.5318 53.2258 25.5318C54.4962 25.5318 55.6602 25.0268 56.5654 24.1928V25.417H60.3539V8.4082H56.5654ZM54.1691 22.4407C52.6705 22.4407 51.4533 21.2165 51.4533 19.7092C51.4533 18.2019 52.6705 16.9776 54.1691 16.9776C55.6678 16.9776 56.8849 18.2019 56.8849 19.7092C56.8849 21.2165 55.6678 22.4407 54.1691 22.4407Z" fill="white"/>
<path d="M70.4876 22.5713C69.1563 22.5713 68.2967 20.8268 68.2967 19.7097C68.2967 18.5926 68.9205 16.7639 70.3963 16.7639C71.8721 16.7639 72.6785 17.8275 72.6785 17.8275L74.8694 15.4785C74.8694 15.4785 73.0665 13.8105 70.3811 13.8105C66.4861 13.8105 64.5234 16.4502 64.5234 19.702C64.5234 22.9538 66.3035 25.5935 70.3811 25.5935C72.9752 25.5935 74.8694 24.0786 74.8694 24.0786L72.6785 21.546C72.6785 21.546 71.8189 22.556 70.4876 22.556V22.5713Z" fill="white"/>
<path d="M110.242 9.19531C104.712 9.19531 101.768 13.0516 101.768 17.4817C101.768 21.9117 104.909 25.4926 110.242 25.4926C115.872 25.4926 118.717 21.9041 118.717 17.4817C118.717 13.0592 116.016 9.19531 110.242 9.19531ZM110.235 21.9806C107.465 21.9806 105.83 19.7235 105.83 17.4204C105.83 15.1174 107.359 12.7608 110.235 12.7608C113.11 12.7608 114.639 15.1251 114.639 17.4204C114.639 19.7158 113.156 21.9806 110.235 21.9806Z" fill="white"/>
<path d="M168.491 11.1543C168.491 11.1543 166.658 13.1513 166.019 13.794C164.916 12.1184 163.242 12.2102 163.242 12.2102" fill="white"/>
<path d="M163.57 15.7849C162.886 15.5553 161.151 15.1651 161.128 13.8415C161.098 12.1888 163.243 12.2117 163.243 12.2117C163.243 12.2117 165.122 12.2882 166.02 13.7955C166.659 13.1528 168.492 11.1559 168.492 11.1559C167.328 9.88574 165.426 9.09766 163.388 9.09766C160.056 9.09766 157.127 11.2018 157.127 14.0633C157.127 17.6977 160.17 18.2869 161.973 18.7612C164.597 19.4498 164.415 20.7353 164.415 20.7353C164.415 20.7353 164.529 22.4185 162.338 22.4185C160.147 22.4185 158.945 20.6894 158.945 20.6894L156.396 23.3597C157.576 24.6604 159.599 25.5173 161.897 25.5173C165.533 25.5173 168.477 23.5968 168.477 20.72C168.477 20.7123 168.477 20.697 168.477 20.6894H168.5C168.5 16.902 165.312 16.3664 163.578 15.7849H163.57Z" fill="white"/>
<path d="M94.9902 9.47266L92.7689 19.8325H92.5558L89.9237 9.47266H88.0143H86.1124L83.4727 19.8325H83.2597L81.0384 9.47266H76.7402L81.1981 25.3338H84.9942L87.9154 14.6296H88.0143H88.1208L91.0344 25.3338H94.8304L99.2959 9.47266H94.9902Z" fill="white"/>
</svg>
