<svg width="20" height="20" viewBox="0 0 20 20" fill="none" xmlns="http://www.w3.org/2000/svg">
<path d="M10 15.8C6.79675 15.8 4.2 13.2033 4.2 10H2.8C2.8 13.9764 6.02355 17.2 10 17.2V15.8ZM15.8 10C15.8 13.2033 13.2033 15.8 10 15.8V17.2C13.9764 17.2 17.2 13.9764 17.2 10H15.8ZM10 4.2C13.2033 4.2 15.8 6.79675 15.8 10H17.2C17.2 6.02355 13.9764 2.8 10 2.8V4.2ZM10 2.8C6.02355 2.8 2.8 6.02355 2.8 10H4.2C4.2 6.79675 6.79675 4.2 10 4.2V2.8Z" fill="#131516"/>
<path d="M10 6.60001V10.6" stroke="#131516" stroke-width="1.4" stroke-linecap="round" stroke-linejoin="round"/>
<path d="M9.99999 13.4C10.3866 13.4 10.7 13.0866 10.7 12.7C10.7 12.3134 10.3866 12 9.99999 12C9.61339 12 9.29999 12.3134 9.29999 12.7C9.29999 13.0866 9.61339 13.4 9.99999 13.4Z" fill="#131516"/>
</svg>
